<svg width="20" height="21" viewBox="0 0 20 21" fill="none" xmlns="http://www.w3.org/2000/svg">
<path d="M4.37592 8.568C4.16317 9.18988 4.05504 9.84274 4.05592 10.5C4.05592 11.234 4.18792 11.937 4.43192 12.586C4.73603 13.3972 5.21372 14.1321 5.83156 14.7393C6.4494 15.3466 7.19247 15.8115 8.00877 16.1015C8.82508 16.3916 9.69491 16.4998 10.5574 16.4185C11.4199 16.3372 12.2542 16.0684 13.0019 15.631H13.0029C14.181 14.9404 15.0861 13.8661 15.5669 12.588H10.2199V8.632H19.8249C20.0733 9.94049 20.0584 11.2854 19.7809 12.588C19.3001 14.8399 18.0568 16.8568 16.2609 18.298C14.4871 19.7264 12.2773 20.5035 9.99992 20.5C8.28289 20.501 6.59455 20.0597 5.09755 19.2187C3.60056 18.3778 2.34538 17.1655 1.45293 15.6986C0.560485 14.2317 0.0608551 12.5597 0.00217851 10.8437C-0.0564981 9.12764 0.327757 7.42542 1.11792 5.901C1.96089 4.27291 3.2353 2.90796 4.8018 1.9554C6.36829 1.00284 8.16655 0.499357 9.99992 0.500001C12.4259 0.500001 14.6509 1.364 16.3829 2.802L13.1429 5.454C12.3839 4.98164 11.5282 4.68643 10.6394 4.59034C9.75066 4.49424 8.85164 4.59972 8.00923 4.89894C7.16682 5.19816 6.40269 5.68342 5.77366 6.31864C5.14463 6.95386 4.66688 7.7227 4.37592 8.568Z" fill="#0F62FE"/>
</svg>
