<svg width="20" height="13" viewBox="0 0 20 13" fill="none" xmlns="http://www.w3.org/2000/svg">
<path d="M18 6.50002C18 4.69002 14.24 2.51502 9.993 2.50002C5.775 2.48502 2 4.67802 2 6.50002C2 8.32502 5.754 10.506 9.997 10.5C14.252 10.494 18 8.32002 18 6.50002ZM10 12.5C4.958 12.507 0 9.81402 0 6.50002C0 3.18602 4.984 0.483019 10 0.500019C15.016 0.517019 20 3.18602 20 6.50002C20 9.81402 15.042 12.493 10 12.5ZM10 10.5C8.93913 10.5 7.92172 10.0786 7.17157 9.32845C6.42143 8.5783 6 7.56088 6 6.50002C6 5.43915 6.42143 4.42174 7.17157 3.67159C7.92172 2.92145 8.93913 2.50002 10 2.50002C11.0609 2.50002 12.0783 2.92145 12.8284 3.67159C13.5786 4.42174 14 5.43915 14 6.50002C14 7.56088 13.5786 8.5783 12.8284 9.32845C12.0783 10.0786 11.0609 10.5 10 10.5ZM10 8.50002C10.5304 8.50002 11.0391 8.28931 11.4142 7.91423C11.7893 7.53916 12 7.03045 12 6.50002C12 5.96959 11.7893 5.46088 11.4142 5.0858C11.0391 4.71073 10.5304 4.50002 10 4.50002C9.46957 4.50002 8.96086 4.71073 8.58579 5.0858C8.21071 5.46088 8 5.96959 8 6.50002C8 7.03045 8.21071 7.53916 8.58579 7.91423C8.96086 8.28931 9.46957 8.50002 10 8.50002Z" fill="#697077"/>
</svg>
